<svg xmlns="http://www.w3.org/2000/svg" width="28" height="20" viewBox="0 0 28 20">
  <g fill="none">
    <rect width="28" height="20" fill="#0A17A7" rx="2"/>
    <path fill="#FFF" d="M17.333,0 L17.333,6.144 L26.3859101,0.0372000861 C27.305817,0.217025459 28,1.02744516 28,2 L28,2.165 L21.325,6.667 L28,6.667 L28,13.333 L21.325,13.333 L28,17.835 L28,18 C28,18.973257 27.3048142,19.7841447 26.3839172,19.9631884 L17.332,13.856 L17.333,20 L10.667,20 L10.667,13.856 L1.61608278,19.9631884 C0.69518581,19.7841447 1.19189612e-16,18.973257 0,18 L0,17.835 L6.674,13.333 L-8.8817842e-16,13.333 L-8.8817842e-16,6.667 L6.674,6.667 L0,2.165 L0,2 C-1.19103617e-16,1.02744516 0.694183018,0.217025459 1.61408985,0.0372000861 L10.666,6.144 L10.666,0 L17.333,0 Z"/>
    <path fill="#E6273E" d="M16,0 L16,8 L27.999,8 L27.999,12 L16,12 L16,20 L12,20 L12,12 L7.10542736e-15,12 L7.10542736e-15,8 L12,8 L12,0 L16,0 Z M9.56794072,13.4206872 C9.65519199,13.5522607 9.63685908,13.7231077 9.53317422,13.8333389 L9.47431279,13.8829407 L0.824971436,19.6186029 C0.641003995,19.4848207 0.480723258,19.3204392 0.351606621,19.1329358 L9.10568721,13.3270593 L9.1742843,13.2921387 C9.31617425,13.2395201 9.48068946,13.2891137 9.56794072,13.4206872 Z M20.1310499,13.3860119 L20.1993842,13.4214441 L27.9039681,18.6140537 C27.8341253,18.8307767 27.7283069,19.0313489 27.5935484,19.2087346 L19.8266158,13.9745559 L19.7681266,13.9245157 C19.6652682,13.8135129 19.6482122,13.6425338 19.7364441,13.5116158 C19.8246759,13.3806979 19.989557,13.3323348 20.1310499,13.3860119 Z M27.6279366,0.837914379 L18.8512935,6.61061399 C18.6974192,6.71184418 18.4906162,6.66916772 18.389386,6.51529347 C18.3026173,6.38340125 18.3215759,6.21262259 18.4256638,6.10277192 L18.4847065,6.05338601 L27.142023,0.357901139 C27.3301194,0.488960867 27.4946372,0.651511928 27.6279366,0.837914379 Z M0.408782707,0.788203086 L8.19237519,6.033438 C8.34511616,6.13637017 8.38549417,6.34363421 8.282562,6.49637519 C8.19433442,6.62729602 8.02945486,6.67566448 7.88796024,6.62199192 L7.81962481,6.586562 L0.0970085166,1.38292419 C0.167263486,1.16611134 0.273541262,0.965517925 0.408782707,0.788203086 Z"/>
  </g>
</svg>
